<svg xmlns="http://www.w3.org/2000/svg" width="36" height="29" fill="none"><path fill="#fff" d="M33.429 25.607a.66.66 0 0 1-.643.643H3.214a.66.66 0 0 1-.643-.643V10.18q.633.723 1.387 1.326c2.872 2.21 5.765 4.46 8.558 6.79 1.506 1.265 3.375 2.812 5.464 2.812h.04c2.09 0 3.958-1.547 5.464-2.812 2.793-2.33 5.686-4.58 8.558-6.79q.754-.603 1.387-1.326zm0-21.114c0 1.708-1.648 3.938-2.954 4.962-2.692 2.11-5.384 4.24-8.055 6.369-1.065.864-2.994 2.712-4.4 2.712h-.04c-1.406 0-3.335-1.849-4.4-2.712-2.671-2.13-5.363-4.26-8.055-6.369C3.717 8.03 2.57 6.04 2.57 3.75c0-.342.302-.643.643-.643h29.572c.763 0 .643.884.643 1.386M36 3.75A3.224 3.224 0 0 0 32.786.536H3.214A3.224 3.224 0 0 0 0 3.75v21.857a3.224 3.224 0 0 0 3.214 3.214h29.572A3.224 3.224 0 0 0 36 25.607z"/></svg>