<svg xmlns="http://www.w3.org/2000/svg" width="21" height="20" fill="none"><path fill="#3E9CDC" d="M16.912 13.456c.06.388-.067.552-.195.552s-.314-.158-.521-.47c-.207-.313-.278-.661-.178-.84a.3.3 0 0 1 .17-.126.3.3 0 0 1 .213.022c.341.124.475.63.51.862m-1.888.85c.41.335.535.733.318 1.013a.687.687 0 0 1-.55.238 1 1 0 0 1-.626-.218c-.37-.314-.48-.825-.237-1.114a.53.53 0 0 1 .434-.176c.245.008.479.099.661.257m-.684 3.23c1.762 0 3.674.585 5.791 2.4.211.18.493-.045.309-.27-2.08-2.54-4.008-3.025-5.922-3.433-2.346-.502-3.554-1.78-4.4-3.182-.166-.279-.242-.23-.257.13a7.7 7.7 0 0 0 .124 1.59H9.7a6.23 6.23 0 0 1-3.377-.992 5.93 5.93 0 0 1-2.239-2.639 5.7 5.7 0 0 1-.345-3.397A5.82 5.82 0 0 1 5.4 4.733a6.15 6.15 0 0 1 3.112-1.61 6.27 6.27 0 0 1 3.512.335 6.04 6.04 0 0 1 2.728 2.166 5.74 5.74 0 0 1 .986 3.95 9.4 9.4 0 0 0-1.93-.035c-.232.02-.198.13-.025.154 2.004.35 3.391 1.55 3.706 3.74a.05.05 0 0 0 .014.03.055.055 0 0 0 .062.014.06.06 0 0 0 .026-.021 8.66 8.66 0 0 0 1.24-5.608 8.78 8.78 0 0 0-2.554-5.176 9.3 9.3 0 0 0-5.29-2.59A9.46 9.46 0 0 0 5.165 1.15a9 9 0 0 0-3.94 4.286 8.63 8.63 0 0 0-.417 5.72 8.9 8.9 0 0 0 3.28 4.779 9.4 9.4 0 0 0 5.612 1.849c1.343.004 2.68-.25 4.641-.25z"/></svg>