<svg xmlns="http://www.w3.org/2000/svg" width="12" height="14" fill="none"><path fill="#3E9CDC" d="M11.18 9.286q0 .975-.369 1.714t-.993 1.222a4.6 4.6 0 0 1-1.626.826q-.879.246-2.241.246H.713V.207h4.623q1.44 0 2.18.114.746.106 1.397.457.703.379 1.046 1.011.351.633.351 1.46 0 .957-.483 1.704a2.8 2.8 0 0 1-1.318 1.099v.07q1.212.255 1.942 1.046.73.783.73 2.118M6.97 3.907q0-.315-.167-.65a.96.96 0 0 0-.5-.483 2 2 0 0 0-.774-.15 36 36 0 0 0-1.318-.017h-.229v2.768h.413q.844 0 1.178-.017.343-.018.703-.185.396-.185.545-.51t.15-.756m.827 5.318q0-.607-.246-.95-.247-.341-.739-.518-.298-.114-.826-.123a43 43 0 0 0-1.397-.018h-.607v3.279h.176q1.283 0 1.775-.018t1.002-.237q.45-.195.65-.563.212-.378.212-.852"/></svg>